<?xml version="1.0" encoding="UTF-8"?>
<svg id="Layer_1" data-name="Layer 1" xmlns="http://www.w3.org/2000/svg" viewBox="0 0 485.11 281.62">
  <defs>
    <style>
      .cls-1 {
        fill: #7b53a2;
      }

      .cls-2 {
        fill: #231f20;
      }
    </style>
  </defs>
  <path class="cls-1" d="m5.86,213.87v-23.07l18.8-3.78V63.11l-18.8-3.78v-23.32h85.82c13.83,0,25.78,2.18,35.83,6.53,10.05,4.35,17.78,10.58,23.19,18.68,5.41,8.1,8.12,17.72,8.12,28.87,0,10.42-2.71,19.92-8.12,28.5-5.41,8.59-12.9,15.4-22.46,20.45-9.56,5.05-20.53,7.57-32.9,7.57l-31.62-.24v40.65l18.68,3.78v23.07H5.86Zm57.86-97.53h27.83c9.36,0,16.44-2.05,21.24-6.16,4.8-4.11,7.2-10.07,7.2-17.88s-2.42-14.34-7.26-19.1c-4.84-4.76-11.86-7.14-21.06-7.14h-27.95v50.29Zm55.66,97.53l-27.1-73.24,34.67-10.13,23.8,56.52,15.99,3.78v23.07h-47.36Z"/>
  <path class="cls-1" d="m178.59,213.87v-23.07l18.8-3.78V63.11l-18.8-3.78v-23.19h139.89v49.56h-29.66l-1.34-19.53h-51.03v40.77h58.47v30.15h-58.47v46.75h53.59l1.34-20.26h29.42v50.29h-142.21Z"/>
  <path class="cls-2" d="m341.67,213.87v-10.62l19.9-1.59V48.46l-19.9-1.59v-10.74h131.59v38.94h-12.45l-1.22-26.73h-83.37v69.82h72.39v12.33h-72.39v71.17l19.9,1.59v10.62h-54.44Z"/>
</svg>