<?xml version="1.0" standalone="no"?>
<!DOCTYPE svg PUBLIC "-//W3C//DTD SVG 20010904//EN"
 "http://www.w3.org/TR/2001/REC-SVG-20010904/DTD/svg10.dtd">
<svg version="1.0" xmlns="http://www.w3.org/2000/svg"
 width="970.000000pt" height="970.000000pt" viewBox="0 0 970.000000 970.000000"
 preserveAspectRatio="xMidYMid meet">
<metadata>
Created by potrace 1.14, written by Peter Selinger 2001-2017
</metadata>
<g transform="translate(0.000000,970.000000) scale(0.100000,-0.100000)"
fill="#000000" stroke="none">
<path d="M196 6940 l-80 -5 0 -229 0 -230 79 -18 c44 -10 107 -22 140 -29 93
-17 98 -18 124 -23 14 -3 27 -10 30 -15 8 -12 6 -2459 -1 -2467 -4 -3 -59 -16
-125 -29 -140 -29 -146 -30 -200 -40 -24 -4 -43 -10 -44 -14 -7 -44 -2 -444 6
-449 6 -4 350 -7 766 -7 l755 0 2 227 c1 147 -2 229 -9 234 -5 3 -20 7 -32 9
-12 2 -34 6 -49 9 -16 3 -39 8 -53 11 -14 3 -37 8 -52 11 -37 8 -62 12 -98 18
-17 3 -42 9 -55 14 l-25 9 0 401 c-1 269 3 402 10 404 5 2 44 3 85 2 41 -1
175 -2 296 -3 l222 -1 12 -32 c7 -18 16 -42 21 -53 21 -49 122 -331 122 -342
0 -7 4 -13 9 -13 4 0 7 -3 6 -7 0 -5 1 -15 5 -23 3 -8 24 -67 47 -130 23 -63
46 -124 51 -135 5 -11 31 -83 59 -160 99 -269 151 -410 161 -430 10 -20 19
-20 477 -20 257 -1 469 2 472 6 3 4 5 107 5 230 l0 222 -45 13 c-25 7 -97 24
-160 39 -104 24 -117 30 -127 53 -6 15 -24 56 -38 92 -15 36 -34 81 -42 100
-9 19 -21 49 -28 65 -7 17 -27 62 -44 102 -17 39 -31 75 -31 79 0 4 -11 30
-24 58 -35 75 -52 114 -76 176 -12 30 -28 69 -35 85 -8 17 -30 67 -49 112
l-34 83 81 53 c75 49 194 157 257 232 71 85 166 264 191 363 5 17 13 49 19 70
22 85 32 312 16 404 -40 245 -137 434 -298 584 -134 123 -352 236 -543 280
-111 25 -240 43 -360 50 -123 6 -1671 10 -1769 4z m1190 -603 c26 1 52 4 59 7
7 2 16 2 19 -1 3 -3 65 -5 138 -4 360 4 469 -12 583 -90 98 -66 155 -146 196
-274 12 -38 17 -251 7 -285 -3 -8 -10 -33 -16 -55 -22 -78 -101 -178 -167
-212 -16 -9 -32 -19 -35 -22 -7 -9 -100 -40 -140 -46 -19 -3 -44 -9 -55 -12
-35 -12 -694 -10 -698 2 -2 5 -3 230 -3 500 l1 490 30 5 c17 3 31 3 32 0 2 -3
24 -4 49 -3z"/>
<path d="M3570 6703 c0 -215 1 -233 18 -234 9 0 24 -2 32 -4 8 -2 74 -16 145
-30 72 -15 137 -28 145 -30 8 -2 20 -4 26 -4 7 -1 10 -369 10 -1237 l-1 -1237
-21 -8 c-12 -4 -35 -10 -53 -13 -98 -18 -124 -24 -131 -26 -3 -1 -9 -3 -15 -4
-12 -2 -97 -19 -107 -22 -5 -1 -17 -2 -28 -3 -19 -1 -20 -8 -20 -230 0 -174 3
-230 13 -233 10 -4 2813 -3 2827 1 4 1 5 969 1 994 0 4 -131 7 -291 7 -159 0
-291 -3 -291 -7 -4 -24 -7 -59 -13 -153 -10 -157 -17 -234 -23 -240 -2 -3
-243 -5 -534 -5 l-529 0 0 30 c-1 37 -1 828 0 872 l0 32 576 0 c316 0 579 3
583 5 4 3 8 139 8 303 l0 298 -584 -1 c-320 -1 -583 1 -583 5 -1 10 -1 646 0
732 l0 75 504 0 c277 -1 507 -4 510 -7 5 -5 8 -30 21 -241 4 -53 8 -105 10
-115 2 -10 4 -20 4 -23 1 -4 525 -5 578 -1 9 1 12 121 12 491 l0 490 -22 4
c-12 3 -642 4 -1399 4 l-1378 -1 0 -234z"/>
<path d="M6832 6833 c0 -56 3 -105 6 -107 7 -4 79 -11 227 -22 44 -3 91 -7
105 -9 14 -2 33 -3 43 -4 16 -1 17 -81 17 -1531 0 -1450 -1 -1530 -17 -1531
-10 -1 -29 -2 -43 -4 -14 -1 -59 -5 -100 -9 -41 -3 -106 -9 -145 -12 -38 -4
-75 -7 -82 -7 -9 0 -11 -29 -10 -106 l2 -106 543 0 c475 0 542 2 543 15 2 37
-1 134 -5 138 -3 2 -1 15 4 28 5 13 6 25 2 28 -4 2 -43 7 -87 10 -44 4 -111 9
-150 12 -38 3 -88 7 -110 9 -22 2 -43 4 -46 4 -3 1 -5 321 -5 711 l0 710 35 0
c20 1 345 1 724 1 l687 -1 0 124 0 123 -716 -1 c-467 -1 -718 2 -722 9 -8 12
-11 1385 -3 1386 32 5 1654 2 1657 -3 3 -4 7 -60 10 -125 3 -65 7 -145 8 -178
2 -33 5 -97 6 -142 l3 -82 119 -3 c68 -2 122 1 126 6 7 12 9 765 2 768 -3 1
-595 2 -1317 3 l-1311 2 0 -104z"/>
</g>
</svg>
